<svg xmlns="http://www.w3.org/2000/svg" version="1.1" xmlns:xlink="http://www.w3.org/1999/xlink" xmlns:svgjs="http://svgjs.com/svgjs" width="1284" height="2778" preserveAspectRatio="none" viewBox="0 0 1284 2778"><g mask="url(&quot;#SvgjsMask1051&quot;)" fill="none"><rect width="1284" height="2778" x="0" y="0" fill="#0e2a47"></rect><path d="M481 762L480 2694" stroke-width="8" stroke="url(#SvgjsLinearGradient1052)" stroke-linecap="round" class="Down"></path><path d="M254 987L253 1834" stroke-width="10" stroke="url(#SvgjsLinearGradient1052)" stroke-linecap="round" class="Down"></path><path d="M53 599L52 -1206" stroke-width="6" stroke="url(#SvgjsLinearGradient1053)" stroke-linecap="round" class="Up"></path><path d="M1090 2007L1089 32" stroke-width="8" stroke="url(#SvgjsLinearGradient1052)" stroke-linecap="round" class="Down"></path><path d="M563 1275L562 2200" stroke-width="6" stroke="url(#SvgjsLinearGradient1053)" stroke-linecap="round" class="Up"></path><path d="M108 1830L107 3274" stroke-width="6" stroke="url(#SvgjsLinearGradient1052)" stroke-linecap="round" class="Down"></path><path d="M795 1793L794 16" stroke-width="10" stroke="url(#SvgjsLinearGradient1052)" stroke-linecap="round" class="Down"></path><path d="M416 919L415 -708" stroke-width="10" stroke="url(#SvgjsLinearGradient1053)" stroke-linecap="round" class="Up"></path><path d="M38 1539L37 -473" stroke-width="8" stroke="url(#SvgjsLinearGradient1053)" stroke-linecap="round" class="Up"></path><path d="M729 2606L728 1894" stroke-width="6" stroke="url(#SvgjsLinearGradient1053)" stroke-linecap="round" class="Up"></path><path d="M1252 1917L1251 535" stroke-width="10" stroke="url(#SvgjsLinearGradient1052)" stroke-linecap="round" class="Down"></path><path d="M828 2651L827 4124" stroke-width="10" stroke="url(#SvgjsLinearGradient1053)" stroke-linecap="round" class="Up"></path><path d="M1013 1571L1012 770" stroke-width="8" stroke="url(#SvgjsLinearGradient1052)" stroke-linecap="round" class="Down"></path><path d="M670 672L669 -1217" stroke-width="8" stroke="url(#SvgjsLinearGradient1052)" stroke-linecap="round" class="Down"></path><path d="M814 827L813 2118" stroke-width="8" stroke="url(#SvgjsLinearGradient1053)" stroke-linecap="round" class="Up"></path><path d="M631 1654L630 3534" stroke-width="8" stroke="url(#SvgjsLinearGradient1053)" stroke-linecap="round" class="Up"></path><path d="M69 2323L68 4004" stroke-width="8" stroke="url(#SvgjsLinearGradient1053)" stroke-linecap="round" class="Up"></path><path d="M478 48L477 -1978" stroke-width="8" stroke="url(#SvgjsLinearGradient1052)" stroke-linecap="round" class="Down"></path><path d="M283 2582L282 4235" stroke-width="8" stroke="url(#SvgjsLinearGradient1052)" stroke-linecap="round" class="Down"></path><path d="M441 2223L440 532" stroke-width="6" stroke="url(#SvgjsLinearGradient1053)" stroke-linecap="round" class="Up"></path><path d="M285 404L284 1944" stroke-width="6" stroke="url(#SvgjsLinearGradient1052)" stroke-linecap="round" class="Down"></path><path d="M783 1083L782 -873" stroke-width="6" stroke="url(#SvgjsLinearGradient1052)" stroke-linecap="round" class="Down"></path><path d="M425 1061L424 -691" stroke-width="6" stroke="url(#SvgjsLinearGradient1052)" stroke-linecap="round" class="Down"></path><path d="M539 80L538 1723" stroke-width="8" stroke="url(#SvgjsLinearGradient1053)" stroke-linecap="round" class="Up"></path><path d="M71 1400L70 3272" stroke-width="8" stroke="url(#SvgjsLinearGradient1052)" stroke-linecap="round" class="Down"></path><path d="M1256 1511L1255 2256" stroke-width="6" stroke="url(#SvgjsLinearGradient1052)" stroke-linecap="round" class="Down"></path><path d="M366 2625L365 3781" stroke-width="6" stroke="url(#SvgjsLinearGradient1053)" stroke-linecap="round" class="Up"></path><path d="M436 893L435 -314" stroke-width="10" stroke="url(#SvgjsLinearGradient1053)" stroke-linecap="round" class="Up"></path><path d="M454 1071L453 -75" stroke-width="6" stroke="url(#SvgjsLinearGradient1052)" stroke-linecap="round" class="Down"></path><path d="M1248 21L1247 1239" stroke-width="8" stroke="url(#SvgjsLinearGradient1053)" stroke-linecap="round" class="Up"></path><path d="M389 2504L388 1077" stroke-width="6" stroke="url(#SvgjsLinearGradient1052)" stroke-linecap="round" class="Down"></path><path d="M1244 507L1243 -1285" stroke-width="8" stroke="url(#SvgjsLinearGradient1052)" stroke-linecap="round" class="Down"></path><path d="M732 1699L731 503" stroke-width="8" stroke="url(#SvgjsLinearGradient1053)" stroke-linecap="round" class="Up"></path></g><defs><mask id="SvgjsMask1051"><rect width="1284" height="2778" fill="#ffffff"></rect></mask><linearGradient x1="0%" y1="0%" x2="0%" y2="100%" id="SvgjsLinearGradient1052"><stop stop-color="rgba(28, 83, 142, 0)" offset="0"></stop><stop stop-color="#1c538e" offset="1"></stop></linearGradient><linearGradient x1="0%" y1="100%" x2="0%" y2="0%" id="SvgjsLinearGradient1053"><stop stop-color="rgba(28, 83, 142, 0)" offset="0"></stop><stop stop-color="#1c538e" offset="1"></stop></linearGradient></defs></svg>